<svg width="580" height="260" viewBox="0 0 580 260" fill="none" xmlns="http://www.w3.org/2000/svg">
<rect width="580" height="260" fill="black"/>
<path d="M225.287 137.119V81.868H218.483V101.083H204.119V107.005H218.483V138.127C218.483 138.82 219.113 139.198 219.806 138.946L225.287 137.119ZM207.584 92.074V86.278H181.376V124.33H213.443V118.534H188.18V92.074H207.584ZM281.235 111.919V99.193H289.992V93.271H281.235V81.868H274.431V112.927C274.431 113.62 275.061 113.998 275.754 113.746L281.235 111.919ZM268.509 107.131L255.783 95.728V90.184H266.871V84.388H237.324V90.184H248.853V95.791L235.497 107.761L239.97 112.108L252.318 100.894L264.036 111.478L268.509 107.131ZM281.235 137.812V115.699H244.695V137.812H281.235ZM274.431 132.016H251.499V121.495H274.431V132.016ZM340.711 109.399V81.868H333.907V110.407C333.907 111.1 334.537 111.478 335.23 111.226L340.711 109.399ZM327.544 105.493L313.432 91.57V83.128H306.502V91.633L291.76 106.249L296.233 110.344L309.967 96.673L323.008 109.588L327.544 105.493ZM341.656 138.19V132.709H310.534V128.11H340.711V113.179H303.541V118.66H333.718V122.881H303.541V138.19H341.656ZM399.305 137.182V81.868H392.627V138.127C392.627 138.82 393.257 139.198 393.95 138.946L399.305 137.182ZM379.019 123.07L368.498 106.249V94.909H377.129V89.113H368.561V82.183H361.631V89.113H352.622V94.909H361.694V106.249L350.732 123.826L356.213 126.724L365.096 112.486L373.538 125.968L379.019 123.07ZM388.658 134.662V82.813H381.98V101.587H373.916V107.509H381.98V135.607C381.98 136.3 382.61 136.678 383.303 136.426L388.658 134.662Z" fill="white"/>
<path d="M227.872 169.192V166.064H208.152V169.192H216.176V191.904C216.176 192.278 216.516 192.482 216.89 192.346L219.848 191.36V169.192H227.872ZM234.268 165.724H230.596V191.904C230.596 192.278 230.936 192.482 231.31 192.346L234.268 191.36V180.514C234.37 177.556 236.444 175.788 238.926 175.788C241.51 175.788 243.244 177.284 243.244 180.378V191.904C243.244 192.278 243.584 192.482 243.958 192.346L246.916 191.36V180.616C246.916 175.006 243.618 172.66 239.436 172.66C237.464 172.66 235.662 173.306 234.268 174.496V165.724ZM266.622 183.744V180.276C266.622 174.87 262.916 172.66 258.462 172.66C254.008 172.66 250.302 174.87 250.302 180.276V184.764C250.302 190.17 254.008 192.38 258.462 192.38C262.406 192.38 265.84 190.646 266.486 186.498L262.78 186.192C262.372 188.3 260.638 189.252 258.462 189.252C255.844 189.252 253.974 187.824 253.974 184.798V183.744H266.622ZM253.974 180.242C253.974 177.216 255.844 175.788 258.462 175.788C261.08 175.788 262.95 177.216 262.95 180.242V180.684H253.974V180.242ZM286.666 185.002V166.064H282.994V184.798C282.994 187.892 280.988 189.15 278.2 189.15C277.486 189.15 276.704 189.048 275.922 188.912L275.48 192.142C276.568 192.278 277.588 192.38 278.54 192.38C283.742 192.38 286.666 190.102 286.666 185.002ZM307.404 187.824V173H303.902V174.564C302.508 173.34 300.604 172.66 298.564 172.66C294.246 172.66 290.744 175.006 290.744 180.616V184.152C290.744 189.762 294.246 192.108 298.564 192.108C300.74 192.108 302.712 191.36 304.14 189.966L304.48 191.938C304.548 192.312 304.82 192.482 305.194 192.346L308.016 191.36L307.404 187.824ZM303.732 184.254C303.63 187.212 301.726 188.98 299.074 188.98C296.354 188.98 294.416 187.484 294.416 184.39V180.378C294.416 177.284 296.354 175.788 299.074 175.788C301.794 175.788 303.732 177.658 303.732 180.752V184.254ZM315.15 191.36V180.548C315.218 177.726 316.646 175.788 318.754 175.788C320.794 175.788 322.052 177.318 322.052 180.038V191.904C322.052 192.278 322.392 192.482 322.766 192.346L325.724 191.36V180.548C325.792 177.726 327.22 175.788 329.328 175.788C331.368 175.788 332.626 177.318 332.626 180.038V191.904C332.626 192.278 332.966 192.482 333.34 192.346L336.298 191.36V180.276C336.298 174.938 333.748 172.66 330.008 172.66C327.866 172.66 325.928 173.646 324.636 175.414C323.548 173.51 321.712 172.66 319.434 172.66C317.734 172.66 316.204 173.272 314.98 174.394V173H311.478V191.904C311.478 192.278 311.818 192.482 312.192 192.346L315.15 191.36ZM353.795 186.94C353.795 183.812 351.721 182.146 348.729 181.262L345.873 180.412C344.411 179.97 343.391 179.29 343.391 177.93C343.391 176.638 344.411 175.788 346.247 175.788C348.049 175.788 349.375 177.046 349.613 178.508L353.285 178.168C352.775 174.598 349.749 172.66 346.281 172.66C342.337 172.66 339.685 174.564 339.685 178.032C339.685 181.024 341.453 182.316 344.071 183.098L346.927 183.948C349.035 184.56 350.089 185.546 350.089 186.906C350.089 188.402 348.797 189.32 346.689 189.32C344.547 189.32 343.017 188.13 342.677 185.92L339.005 186.26C339.515 190.17 342.541 192.38 346.689 192.38C350.157 192.38 353.795 190.986 353.795 186.94ZM360.951 169.056V165.18H356.803V169.056H360.951ZM360.713 191.36V173.34H357.041V191.904C357.041 192.278 357.381 192.482 357.755 192.346L360.713 191.36ZM369.147 191.36V165.724H365.475V191.904C365.475 192.278 365.815 192.482 366.189 192.346L369.147 191.36Z" fill="white"/>
</svg>
